<?xml version="1.0" encoding="UTF-8" standalone="no"?>
<svg
   xmlns:dc="http://purl.org/dc/elements/1.1/"
   xmlns:cc="http://creativecommons.org/ns#"
   xmlns:rdf="http://www.w3.org/1999/02/22-rdf-syntax-ns#"
   xmlns:svg="http://www.w3.org/2000/svg"
   xmlns="http://www.w3.org/2000/svg"
   xmlns:sodipodi="http://sodipodi.sourceforge.net/DTD/sodipodi-0.dtd"
   xmlns:inkscape="http://www.inkscape.org/namespaces/inkscape"
   version="1.1"
   width="932"
   height="382"
   id="svg588"
   sodipodi:docname="Cashier-use-case.svg"
   inkscape:version="1.0.1 (3bc2e813f5, 2020-09-07)">
  <metadata
     id="metadata592">
    <rdf:RDF>
      <cc:Work
         rdf:about="">
        <dc:format>image/svg+xml</dc:format>
        <dc:type
           rdf:resource="http://purl.org/dc/dcmitype/StillImage" />
        <dc:title></dc:title>
      </cc:Work>
    </rdf:RDF>
  </metadata>
  <sodipodi:namedview
     pagecolor="#ffffff"
     bordercolor="#666666"
     borderopacity="1"
     objecttolerance="10"
     gridtolerance="10"
     guidetolerance="10"
     inkscape:pageopacity="0"
     inkscape:pageshadow="2"
     inkscape:window-width="958"
     inkscape:window-height="1054"
     id="namedview590"
     showgrid="false"
     inkscape:zoom="0.65075107"
     inkscape:cx="535.86361"
     inkscape:cy="158.50201"
     inkscape:window-x="960"
     inkscape:window-y="444"
     inkscape:window-maximized="0"
     inkscape:current-layer="g586" />
  <defs
     id="defs2" />
  <g
     id="g586"
     transform="translate(-5.1823757,5.3602519)">
    <text
       fill="#eeeeee"
       stroke="none"
       font-family="Arial"
       font-size="24px"
       font-style="normal"
       font-weight="normal"
       text-decoration="none"
       x="600"
       y="30"
       id="text84"
       style="text-decoration:none;text-decoration-line:none">UNREGISTERED</text>
    <g
       transform="translate(-246,-246)"
       id="g136">
      <path
         fill="#ffffff"
         stroke="none"
         d="m 699.6657,401.68 c 0,-4.79383 3.88584,-8.68 8.67927,-8.68 4.79343,0 8.67927,3.88617 8.67927,8.68 0,4.79383 -3.88584,8.68 -8.67927,8.68 -4.79343,0 -8.67927,-3.88617 -8.67927,-8.68 z"
         id="path134" />
    </g>
    <g
       transform="translate(-246,-246)"
       id="g140">
      <path
         fill="none"
         stroke="#000000"
         d="m 699.6657,401.68 c 0,-4.79383 3.88584,-8.68 8.67927,-8.68 4.79343,0 8.67927,3.88617 8.67927,8.68 0,4.79383 -3.88584,8.68 -8.67927,8.68 -4.79343,0 -8.67927,-3.88617 -8.67927,-8.68 z"
         stroke-miterlimit="10"
         id="path138" />
    </g>
    <g
       transform="translate(-246,-246)"
       id="g144">
      <path
         fill="none"
         stroke="#000000"
         d="m 708.34497,410.36 v 17.28"
         stroke-miterlimit="10"
         id="path142" />
    </g>
    <g
       transform="translate(-246,-246)"
       id="g148">
      <path
         fill="none"
         stroke="#000000"
         d="m 699.15515,416.84 h 18.37964"
         stroke-miterlimit="10"
         id="path146" />
    </g>
    <g
       transform="translate(-246,-246)"
       id="g152">
      <path
         fill="none"
         stroke="#000000"
         d="M 708.34497,427.64 695.58133,445"
         stroke-miterlimit="10"
         id="path150" />
    </g>
    <g
       transform="translate(-246,-246)"
       id="g156">
      <path
         fill="none"
         stroke="#000000"
         d="M 708.34497,427.64 721.10861,445"
         stroke-miterlimit="10"
         id="path154" />
    </g>
    <g
       transform="translate(-246,-246)"
       id="g164">
      <g
         id="g162">
        <path
           fill="none"
           stroke="none"
           id="path158"
           d="" />
        <text
           fill="#000000"
           stroke="none"
           font-family="Arial"
           font-size="13px"
           font-style="normal"
           font-weight="bold"
           text-decoration="none"
           x="685.94727"
           y="465.5"
           id="text160"
           style="text-decoration:none;text-decoration-line:none">Cashier</text>
      </g>
    </g>
    <g
       transform="translate(-246,-246)"
       id="g168">
      <path
         fill="#c0c0c0"
         stroke="none"
         d="m 519,344 c 0,-9.38884 28.87763,-17 64.5,-17 35.62237,0 64.5,7.61116 64.5,17 0,9.38884 -28.87763,17 -64.5,17 -35.62237,0 -64.5,-7.61116 -64.5,-17 z"
         opacity="0.2"
         id="path166" />
    </g>
    <g
       transform="translate(-246,-246)"
       id="g172">
      <path
         fill="#ffffff"
         stroke="none"
         d="m 512,337 c 0,-9.38884 28.87763,-17 64.5,-17 35.62237,0 64.5,7.61116 64.5,17 0,9.38884 -28.87763,17 -64.5,17 -35.62237,0 -64.5,-7.61116 -64.5,-17 z"
         id="path170" />
    </g>
    <g
       transform="translate(-246,-246)"
       id="g176">
      <path
         fill="none"
         stroke="#000000"
         d="m 512,337 c 0,-9.38884 28.87763,-17 64.5,-17 35.62237,0 64.5,7.61116 64.5,17 0,9.38884 -28.87763,17 -64.5,17 -35.62237,0 -64.5,-7.61116 -64.5,-17 z"
         stroke-miterlimit="10"
         id="path174" />
    </g>
    <g
       transform="translate(-246,-246)"
       id="g184">
      <g
         id="g182">
        <path
           fill="none"
           stroke="none"
           id="path178"
           d="" />
        <text
           fill="#000000"
           stroke="none"
           font-family="Arial"
           font-size="13px"
           font-style="normal"
           font-weight="bold"
           text-decoration="none"
           x="537.84912"
           y="344"
           id="text180"
           style="text-decoration:none;text-decoration-line:none">Register Item</text>
      </g>
    </g>
    <g
       transform="translate(-246,-246)"
       id="g188">
      <path
         fill="none"
         stroke="#000000"
         d="M 679,410 601,355"
         stroke-miterlimit="10"
         id="path186" />
    </g>
    <g
       transform="translate(-246,-246)"
       id="g192">
      <path
         fill="#c0c0c0"
         stroke="none"
         d="m 751,528 c 0,-9.38884 45.89081,-17 102.5,-17 56.60919,0 102.5,7.61116 102.5,17 0,9.38884 -45.89081,17 -102.5,17 C 796.89081,545 751,537.38884 751,528 Z"
         opacity="0.2"
         id="path190" />
    </g>
    <g
       transform="translate(-246,-246)"
       id="g196">
      <path
         fill="#ffffff"
         stroke="none"
         d="m 744,521 c 0,-9.38884 45.89081,-17 102.5,-17 56.60919,0 102.5,7.61116 102.5,17 0,9.38884 -45.89081,17 -102.5,17 C 789.89081,538 744,530.38884 744,521 Z"
         id="path194" />
    </g>
    <g
       transform="translate(-246,-246)"
       id="g200">
      <path
         fill="none"
         stroke="#000000"
         d="m 744,521 c 0,-9.38884 45.89081,-17 102.5,-17 56.60919,0 102.5,7.61116 102.5,17 0,9.38884 -45.89081,17 -102.5,17 C 789.89081,538 744,530.38884 744,521 Z"
         stroke-miterlimit="10"
         id="path198" />
    </g>
    <g
       transform="translate(-246,-246)"
       id="g208">
      <g
         id="g206">
        <path
           fill="none"
           stroke="none"
           id="path202"
           d="" />
        <text
           fill="#000000"
           stroke="none"
           font-family="Arial"
           font-size="13px"
           font-style="normal"
           font-weight="bold"
           text-decoration="none"
           x="782.91553"
           y="528"
           id="text204"
           style="text-decoration:none;text-decoration-line:none">Receive returned item</text>
      </g>
    </g>
    <g
       transform="translate(-246,-246)"
       id="g212">
      <path
         fill="none"
         stroke="#000000"
         d="M 818,503 738,450"
         stroke-miterlimit="10"
         id="path210" />
    </g>
    <g
       transform="translate(-246,-246)"
       id="g216">
      <path
         fill="#c0c0c0"
         stroke="none"
         d="m 495,528 c 0,-9.38884 36.48879,-17 81.5,-17 45.01121,0 81.5,7.61116 81.5,17 0,9.38884 -36.48879,17 -81.5,17 -45.01121,0 -81.5,-7.61116 -81.5,-17 z"
         opacity="0.2"
         id="path214" />
    </g>
    <g
       transform="translate(-246,-246)"
       id="g220">
      <path
         fill="#ffffff"
         stroke="none"
         d="m 488,521 c 0,-9.38884 36.48879,-17 81.5,-17 45.01121,0 81.5,7.61116 81.5,17 0,9.38884 -36.48879,17 -81.5,17 -45.01121,0 -81.5,-7.61116 -81.5,-17 z"
         id="path218" />
    </g>
    <g
       transform="translate(-246,-246)"
       id="g224">
      <path
         fill="none"
         stroke="#000000"
         d="m 488,521 c 0,-9.38884 36.48879,-17 81.5,-17 45.01121,0 81.5,7.61116 81.5,17 0,9.38884 -36.48879,17 -81.5,17 -45.01121,0 -81.5,-7.61116 -81.5,-17 z"
         stroke-miterlimit="10"
         id="path222" />
    </g>
    <g
       transform="translate(-246,-246)"
       id="g232">
      <g
         id="g230">
        <path
           fill="none"
           stroke="none"
           id="path226"
           d="" />
        <text
           fill="#000000"
           stroke="none"
           font-family="Arial"
           font-size="13px"
           font-style="normal"
           font-weight="bold"
           text-decoration="none"
           x="520.00415"
           y="528"
           id="text228"
           style="text-decoration:none;text-decoration-line:none">Make transaction</text>
      </g>
    </g>
    <g
       transform="translate(-246,-246)"
       id="g236">
      <path
         fill="none"
         stroke="#000000"
         d="m 597,503 82,-53"
         stroke-miterlimit="10"
         id="path234" />
    </g>
    <g
       transform="translate(-246,-246)"
       id="g240">
      <path
         fill="#c0c0c0"
         stroke="none"
         d="m 263,528 c 0,-9.38884 26.4152,-17 59,-17 32.5848,0 59,7.61116 59,17 0,9.38884 -26.4152,17 -59,17 -32.5848,0 -59,-7.61116 -59,-17 z"
         opacity="0.2"
         id="path238" />
    </g>
    <g
       transform="translate(-246,-246)"
       id="g244">
      <path
         fill="#ffffff"
         stroke="none"
         d="m 256,521 c 0,-9.38884 26.4152,-17 59,-17 32.5848,0 59,7.61116 59,17 0,9.38884 -26.4152,17 -59,17 -32.5848,0 -59,-7.61116 -59,-17 z"
         id="path242" />
    </g>
    <g
       transform="translate(-246,-246)"
       id="g248">
      <path
         fill="none"
         stroke="#000000"
         d="m 256,521 c 0,-9.38884 26.4152,-17 59,-17 32.5848,0 59,7.61116 59,17 0,9.38884 -26.4152,17 -59,17 -32.5848,0 -59,-7.61116 -59,-17 z"
         stroke-miterlimit="10"
         id="path246" />
    </g>
    <g
       transform="translate(-246,-246)"
       id="g256">
      <g
         id="g254">
        <path
           fill="none"
           stroke="none"
           id="path250"
           d="" />
        <text
           fill="#000000"
           stroke="none"
           font-family="Arial"
           font-size="13px"
           font-style="normal"
           font-weight="bold"
           text-decoration="none"
           x="280.31958"
           y="528"
           id="text252"
           style="text-decoration:none;text-decoration-line:none">Give receipt</text>
      </g>
    </g>
    <g
       transform="translate(-246,-246)"
       id="g260">
      <path
         fill="#c0c0c0"
         stroke="none"
         d="m 479,608 c 0,-9.38884 22.60962,-17 50.5,-17 27.89038,0 50.5,7.61116 50.5,17 0,9.38884 -22.60962,17 -50.5,17 -27.89038,0 -50.5,-7.61116 -50.5,-17 z"
         opacity="0.2"
         id="path258" />
    </g>
    <g
       transform="translate(-246,-246)"
       id="g264">
      <path
         fill="#ffffff"
         stroke="none"
         d="m 472,601 c 0,-9.38884 22.60962,-17 50.5,-17 27.89038,0 50.5,7.61116 50.5,17 0,9.38884 -22.60962,17 -50.5,17 -27.89038,0 -50.5,-7.61116 -50.5,-17 z"
         id="path262" />
    </g>
    <g
       transform="translate(-246,-246)"
       id="g268">
      <path
         fill="none"
         stroke="#000000"
         d="m 472,601 c 0,-9.38884 22.60962,-17 50.5,-17 27.89038,0 50.5,7.61116 50.5,17 0,9.38884 -22.60962,17 -50.5,17 -27.89038,0 -50.5,-7.61116 -50.5,-17 z"
         stroke-miterlimit="10"
         id="path266" />
    </g>
    <g
       transform="translate(-246,-246)"
       id="g276">
      <g
         id="g274">
        <path
           fill="none"
           stroke="none"
           id="path270"
           d="" />
        <text
           fill="#000000"
           stroke="none"
           font-family="Arial"
           font-size="13px"
           font-style="normal"
           font-weight="bold"
           text-decoration="none"
           x="496.84912"
           y="608"
           id="text272"
           style="text-decoration:none;text-decoration-line:none">Payment</text>
      </g>
    </g>
    <g
       transform="translate(-246,-246)"
       id="g280">
      <path
         fill="none"
         stroke="#000000"
         d="M 375,521 H 487"
         stroke-miterlimit="10"
         stroke-dasharray="3"
         id="path278" />
    </g>
    <g
       transform="translate(-246,-246)"
       id="g284">
      <path
         fill="none"
         stroke="#000000"
         d="M 476.83733,525.20952 487,521 476.83733,516.79048"
         stroke-miterlimit="10"
         id="path282" />
    </g>
    <g
       transform="translate(-246,-246)"
       id="g292">
      <g
         id="g290">
        <path
           fill="none"
           stroke="none"
           id="path286"
           d="" />
        <text
           fill="#000000"
           stroke="none"
           font-family="Arial"
           font-size="13px"
           font-style="normal"
           font-weight="normal"
           text-decoration="none"
           x="404.5"
           y="508.5"
           id="text288"
           style="text-decoration:none;text-decoration-line:none">«extend»</text>
      </g>
    </g>
    <g
       transform="translate(-246,-246)"
       id="g296">
      <path
         fill="none"
         stroke="#000000"
         d="m 558,539 -25,44"
         stroke-miterlimit="10"
         stroke-dasharray="3"
         id="path294" />
    </g>
    <g
       transform="translate(-246,-246)"
       id="g300">
      <path
         fill="none"
         stroke="#000000"
         d="M 534.36046,572.08445 533,583 l 8.68045,-6.75646"
         stroke-miterlimit="10"
         id="path298" />
    </g>
    <g
       transform="translate(-246,-246)"
       id="g308">
      <g
         id="g306">
        <path
           fill="none"
           stroke="none"
           id="path302"
           d="" />
        <text
           fill="#000000"
           stroke="none"
           font-family="Arial"
           font-size="13px"
           font-style="normal"
           font-weight="normal"
           text-decoration="none"
           x="559.5"
           y="564.5"
           id="text304"
           style="text-decoration:none;text-decoration-line:none">«include»</text>
      </g>
    </g>
    <g
       transform="translate(-246,-246)"
       id="g312">
      <path
         fill="#c0c0c0"
         stroke="none"
         d="m 503,280 c 0,-9.38884 34.47407,-17 77,-17 42.52593,0 77,7.61116 77,17 0,9.38884 -34.47407,17 -77,17 -42.52593,0 -77,-7.61116 -77,-17 z"
         opacity="0.2"
         id="path310" />
    </g>
    <g
       transform="translate(-246,-246)"
       id="g316">
      <path
         fill="#ffffff"
         stroke="none"
         d="m 496,273 c 0,-9.38884 34.47407,-17 77,-17 42.52593,0 77,7.61116 77,17 0,9.38884 -34.47407,17 -77,17 -42.52593,0 -77,-7.61116 -77,-17 z"
         id="path314" />
    </g>
    <g
       transform="translate(-246,-246)"
       id="g320">
      <path
         fill="none"
         stroke="#000000"
         d="m 496,273 c 0,-9.38884 34.47407,-17 77,-17 42.52593,0 77,7.61116 77,17 0,9.38884 -34.47407,17 -77,17 -42.52593,0 -77,-7.61116 -77,-17 z"
         stroke-miterlimit="10"
         id="path318" />
    </g>
    <g
       transform="translate(-246,-246)"
       id="g328">
      <g
         id="g326">
        <path
           fill="none"
           stroke="none"
           id="path322"
           d="" />
        <text
           fill="#000000"
           stroke="none"
           font-family="Arial"
           font-size="13px"
           font-style="normal"
           font-weight="bold"
           text-decoration="none"
           x="526.76367"
           y="280"
           id="text324"
           style="text-decoration:none;text-decoration-line:none">Verfiy Customer</text>
      </g>
    </g>
    <g
       transform="translate(-246,-246)"
       id="g332">
      <path
         fill="#c0c0c0"
         stroke="none"
         d="m 855,376 c 0,-9.38884 46.56238,-17 104,-17 57.4376,0 104,7.61116 104,17 0,9.38884 -46.5624,17 -104,17 -57.43762,0 -104,-7.61116 -104,-17 z"
         opacity="0.2"
         id="path330" />
    </g>
    <g
       transform="translate(-246,-246)"
       id="g336">
      <path
         fill="#ffffff"
         stroke="none"
         d="m 848,369 c 0,-9.38884 46.56238,-17 104,-17 57.4376,0 104,7.61116 104,17 0,9.38884 -46.5624,17 -104,17 -57.43762,0 -104,-7.61116 -104,-17 z"
         id="path334" />
    </g>
    <g
       transform="translate(-246,-246)"
       id="g340">
      <path
         fill="none"
         stroke="#000000"
         d="m 848,369 c 0,-9.38884 46.56238,-17 104,-17 57.4376,0 104,7.61116 104,17 0,9.38884 -46.5624,17 -104,17 -57.43762,0 -104,-7.61116 -104,-17 z"
         stroke-miterlimit="10"
         id="path338" />
    </g>
    <g
       transform="translate(-246,-246)"
       id="g348">
      <g
         id="g346">
        <path
           fill="none"
           stroke="none"
           id="path342"
           d="" />
        <text
           fill="#000000"
           stroke="none"
           font-family="Arial"
           font-size="13px"
           font-style="normal"
           font-weight="bold"
           text-decoration="none"
           x="888.4187"
           y="376"
           id="text344"
           style="text-decoration:none;text-decoration-line:none">Asked for special item</text>
      </g>
    </g>
    <g
       transform="translate(-246,-246)"
       id="g352">
      <path
         fill="none"
         stroke="#000000"
         d="M 881,387 738,423"
         stroke-miterlimit="10"
         id="path350" />
    </g>
    <g
       transform="translate(-246,-246)"
       id="g356">
      <path
         fill="#c0c0c0"
         stroke="none"
         d="m 847,280 c 0,-9.38884 50.1441,-17 112,-17 61.8559,0 112,7.61116 112,17 0,9.38884 -50.1441,17 -112,17 -61.8559,0 -112,-7.61116 -112,-17 z"
         opacity="0.2"
         id="path354" />
    </g>
    <g
       transform="translate(-246,-246)"
       id="g360">
      <path
         fill="#ffffff"
         stroke="none"
         d="m 840,273 c 0,-9.38884 50.1441,-17 112,-17 61.8559,0 112,7.61116 112,17 0,9.38884 -50.1441,17 -112,17 -61.8559,0 -112,-7.61116 -112,-17 z"
         id="path358" />
    </g>
    <g
       transform="translate(-246,-246)"
       id="g364">
      <path
         fill="none"
         stroke="#000000"
         d="m 840,273 c 0,-9.38884 50.1441,-17 112,-17 61.8559,0 112,7.61116 112,17 0,9.38884 -50.1441,17 -112,17 -61.8559,0 -112,-7.61116 -112,-17 z"
         stroke-miterlimit="10"
         id="path362" />
    </g>
    <g
       transform="translate(-246,-246)"
       id="g372">
      <g
         id="g370">
        <path
           fill="none"
           stroke="none"
           id="path366"
           d="" />
        <text
           fill="#000000"
           stroke="none"
           font-family="Arial"
           font-size="13px"
           font-style="normal"
           font-weight="bold"
           text-decoration="none"
           x="908.29321"
           y="280"
           id="text368"
           style="text-decoration:none;text-decoration-line:none">Restricted Item</text>
      </g>
    </g>
    <g
       transform="translate(-246,-246)"
       id="g376">
      <path
         fill="none"
         stroke="#000000"
         d="M 839,273 H 651"
         stroke-miterlimit="10"
         stroke-dasharray="3"
         id="path374" />
    </g>
    <g
       transform="translate(-246,-246)"
       id="g380">
      <path
         fill="none"
         stroke="#000000"
         d="M 661.16267,268.79048 651,273 l 10.16267,4.20952"
         stroke-miterlimit="10"
         id="path378" />
    </g>
    <g
       transform="translate(-246,-246)"
       id="g388">
      <g
         id="g386">
        <path
           fill="none"
           stroke="none"
           id="path382"
           d="" />
        <text
           fill="#000000"
           stroke="none"
           font-family="Arial"
           font-size="13px"
           font-style="normal"
           font-weight="normal"
           text-decoration="none"
           x="714.5"
           y="269.5"
           id="text384"
           style="text-decoration:none;text-decoration-line:none">«include»</text>
      </g>
    </g>
    <g
       transform="translate(-246,-246)"
       id="g392">
      <path
         fill="none"
         stroke="#000000"
         d="m 952,291 v 60"
         stroke-miterlimit="10"
         stroke-dasharray="3"
         id="path390" />
    </g>
    <g
       transform="translate(-246,-246)"
       id="g396">
      <path
         fill="none"
         stroke="#000000"
         d="M 947.79048,340.83733 952,351 l 4.20952,-10.16267"
         stroke-miterlimit="10"
         id="path394" />
    </g>
    <g
       transform="translate(-246,-246)"
       id="g404">
      <g
         id="g402">
        <path
           fill="none"
           stroke="none"
           id="path398"
           d="" />
        <text
           fill="#000000"
           stroke="none"
           font-family="Arial"
           font-size="13px"
           font-style="normal"
           font-weight="normal"
           text-decoration="none"
           x="959.5"
           y="326.5"
           id="text400"
           style="text-decoration:none;text-decoration-line:none">«extend»</text>
      </g>
    </g>
    <g
       transform="translate(-246,-246)"
       id="g408">
      <path
         fill="none"
         stroke="#000000"
         d="M 846,291 642,326"
         stroke-miterlimit="10"
         stroke-dasharray="3"
         id="path406" />
    </g>
    <g
       transform="translate(-246,-246)"
       id="g412">
      <path
         fill="none"
         stroke="#000000"
         d="M 651.3045,320.13262 642,326 l 10.72815,2.43041"
         stroke-miterlimit="10"
         id="path410" />
    </g>
    <g
       transform="translate(-246,-246)"
       id="g420">
      <g
         id="g418">
        <path
           fill="none"
           stroke="none"
           id="path414"
           d="" />
        <text
           fill="#000000"
           stroke="none"
           font-family="Arial"
           font-size="13px"
           font-style="normal"
           font-weight="normal"
           text-decoration="none"
           x="727.5"
           y="323.5"
           id="text416"
           style="text-decoration:none;text-decoration-line:none">«extend»</text>
      </g>
    </g>
    <g
       transform="translate(-246,-246)"
       id="g424">
      <path
         fill="#c0c0c0"
         stroke="none"
         d="m 327,608 c 0,-9.38884 22.60962,-17 50.5,-17 27.89038,0 50.5,7.61116 50.5,17 0,9.38884 -22.60962,17 -50.5,17 -27.89038,0 -50.5,-7.61116 -50.5,-17 z"
         opacity="0.2"
         id="path422" />
    </g>
    <g
       transform="translate(-246,-246)"
       id="g428">
      <path
         fill="#ffffff"
         stroke="none"
         d="m 320,601 c 0,-9.38884 22.60962,-17 50.5,-17 27.89038,0 50.5,7.61116 50.5,17 0,9.38884 -22.60962,17 -50.5,17 -27.89038,0 -50.5,-7.61116 -50.5,-17 z"
         id="path426" />
    </g>
    <g
       transform="translate(-246,-246)"
       id="g432">
      <path
         fill="none"
         stroke="#000000"
         d="m 320,601 c 0,-9.38884 22.60962,-17 50.5,-17 27.89038,0 50.5,7.61116 50.5,17 0,9.38884 -22.60962,17 -50.5,17 -27.89038,0 -50.5,-7.61116 -50.5,-17 z"
         stroke-miterlimit="10"
         id="path430" />
    </g>
    <g
       transform="translate(-246,-246)"
       id="g440">
      <g
         id="g438">
        <path
           fill="none"
           stroke="none"
           id="path434"
           d="" />
        <text
           fill="#000000"
           stroke="none"
           font-family="Arial"
           font-size="13px"
           font-style="normal"
           font-weight="bold"
           text-decoration="none"
           x="346.65503"
           y="608"
           id="text436"
           style="text-decoration:none;text-decoration-line:none">by Cash</text>
      </g>
    </g>
    <g
       transform="translate(-246,-246)"
       id="g444">
      <path
         fill="#c0c0c0"
         stroke="none"
         d="m 631,608 c 0,-9.38884 29.32535,-17 65.5,-17 36.17465,0 65.5,7.61116 65.5,17 0,9.38884 -29.32535,17 -65.5,17 -36.17465,0 -65.5,-7.61116 -65.5,-17 z"
         opacity="0.2"
         id="path442" />
    </g>
    <g
       transform="translate(-246,-246)"
       id="g448">
      <path
         fill="#ffffff"
         stroke="none"
         d="m 624,601 c 0,-9.38884 29.32535,-17 65.5,-17 36.17465,0 65.5,7.61116 65.5,17 0,9.38884 -29.32535,17 -65.5,17 -36.17465,0 -65.5,-7.61116 -65.5,-17 z"
         id="path446" />
    </g>
    <g
       transform="translate(-246,-246)"
       id="g452">
      <path
         fill="none"
         stroke="#000000"
         d="m 624,601 c 0,-9.38884 29.32535,-17 65.5,-17 36.17465,0 65.5,7.61116 65.5,17 0,9.38884 -29.32535,17 -65.5,17 -36.17465,0 -65.5,-7.61116 -65.5,-17 z"
         stroke-miterlimit="10"
         id="path450" />
    </g>
    <g
       transform="translate(-246,-246)"
       id="g460">
      <g
         id="g458">
        <path
           fill="none"
           stroke="none"
           id="path454"
           d="" />
        <text
           fill="#000000"
           stroke="none"
           font-family="Arial"
           font-size="13px"
           font-style="normal"
           font-weight="bold"
           text-decoration="none"
           x="650.84595"
           y="608"
           id="text456"
           style="text-decoration:none;text-decoration-line:none">by Creditcard</text>
      </g>
    </g>
    <g
       transform="translate(-246,-246)"
       id="g464">
      <path
         fill="none"
         stroke="#000000"
         d="m 422,601 h 49"
         stroke-miterlimit="10"
         id="path462" />
    </g>
    <g
       transform="translate(-246,-246)"
       id="g468">
      <path
         fill="#ffffff"
         stroke="none"
         d="M 450.67465,609.41904 471,601 450.67465,592.58096"
         id="path466" />
    </g>
    <g
       transform="translate(-246,-246)"
       id="g472">
      <path
         fill="none"
         stroke="#000000"
         d="M 450.67465,609.41904 471,601 450.67465,592.58096 v 16.83808"
         stroke-miterlimit="10"
         id="path470" />
    </g>
    <g
       transform="translate(-246,-246)"
       id="g476">
      <path
         fill="none"
         stroke="#000000"
         d="M 623,601 H 574"
         stroke-miterlimit="10"
         id="path474" />
    </g>
    <g
       transform="translate(-246,-246)"
       id="g480">
      <path
         fill="#ffffff"
         stroke="none"
         d="M 594.32535,592.58096 574,601 l 20.32535,8.41904"
         id="path478" />
    </g>
    <g
       transform="translate(-246,-246)"
       id="g484">
      <path
         fill="none"
         stroke="#000000"
         d="M 594.32535,592.58096 574,601 l 20.32535,8.41904 v -16.83808"
         stroke-miterlimit="10"
         id="path482" />
    </g>
    <g
       transform="translate(-246,-246)"
       id="g488">
      <path
         fill="#c0c0c0"
         stroke="none"
         d="m 1039,528 c 0,-9.38884 30.4446,-17 68,-17 37.5554,0 68,7.61116 68,17 0,9.38884 -30.4446,17 -68,17 -37.5554,0 -68,-7.61116 -68,-17 z"
         opacity="0.2"
         id="path486" />
    </g>
    <g
       transform="translate(-246,-246)"
       id="g492">
      <path
         fill="#ffffff"
         stroke="none"
         d="m 1032,521 c 0,-9.38884 30.4446,-17 68,-17 37.5554,0 68,7.61116 68,17 0,9.38884 -30.4446,17 -68,17 -37.5554,0 -68,-7.61116 -68,-17 z"
         id="path490" />
    </g>
    <g
       transform="translate(-246,-246)"
       id="g496">
      <path
         fill="none"
         stroke="#000000"
         d="m 1032,521 c 0,-9.38884 30.4446,-17 68,-17 37.5554,0 68,7.61116 68,17 0,9.38884 -30.4446,17 -68,17 -37.5554,0 -68,-7.61116 -68,-17 z"
         stroke-miterlimit="10"
         id="path494" />
    </g>
    <g
       transform="translate(-246,-246)"
       id="g504">
      <g
         id="g502">
        <path
           fill="none"
           stroke="none"
           id="path498"
           d="" />
        <text
           fill="#000000"
           stroke="none"
           font-family="Arial"
           font-size="13px"
           font-style="normal"
           font-weight="bold"
           text-decoration="none"
           x="1059.5337"
           y="528"
           id="text500"
           style="text-decoration:none;text-decoration-line:none">Obtain receipt</text>
      </g>
    </g>
    <g
       transform="translate(-246,-246)"
       id="g508">
      <path
         fill="none"
         stroke="#000000"
         d="m 949,529 h 83"
         stroke-miterlimit="10"
         stroke-dasharray="3"
         id="path506" />
    </g>
    <g
       transform="translate(-246,-246)"
       id="g512">
      <path
         fill="none"
         stroke="#000000"
         d="M 1021.8373,533.20952 1032,529 l -10.1627,-4.20952"
         stroke-miterlimit="10"
         id="path510" />
    </g>
    <g
       transform="translate(-246,-246)"
       id="g520">
      <g
         id="g518">
        <path
           fill="none"
           stroke="none"
           id="path514"
           d="" />
        <text
           fill="#000000"
           stroke="none"
           font-family="Arial"
           font-size="13px"
           font-style="normal"
           font-weight="normal"
           text-decoration="none"
           x="962.5"
           y="525.5"
           id="text516"
           style="text-decoration:none;text-decoration-line:none">«include»</text>
      </g>
    </g>
    <g
       transform="translate(-246,-246)"
       id="g524">
      <path
         fill="#c0c0c0"
         stroke="none"
         d="m 447,424 c 0,-9.38884 32.45935,-17 72.5,-17 40.04065,0 72.5,7.61116 72.5,17 0,9.38884 -32.45935,17 -72.5,17 -40.04065,0 -72.5,-7.61116 -72.5,-17 z"
         opacity="0.2"
         id="path522" />
    </g>
    <g
       transform="translate(-246,-246)"
       id="g528">
      <path
         fill="#ffffff"
         stroke="none"
         d="m 440,417 c 0,-9.38884 32.45935,-17 72.5,-17 40.04065,0 72.5,7.61116 72.5,17 0,9.38884 -32.45935,17 -72.5,17 -40.04065,0 -72.5,-7.61116 -72.5,-17 z"
         id="path526" />
    </g>
    <g
       transform="translate(-246,-246)"
       id="g532">
      <path
         fill="none"
         stroke="#000000"
         d="m 440,417 c 0,-9.38884 32.45935,-17 72.5,-17 40.04065,0 72.5,7.61116 72.5,17 0,9.38884 -32.45935,17 -72.5,17 -40.04065,0 -72.5,-7.61116 -72.5,-17 z"
         stroke-miterlimit="10"
         id="path530" />
    </g>
    <g
       transform="translate(-246,-246)"
       id="g540">
      <g
         id="g538">
        <path
           fill="none"
           stroke="none"
           id="path534"
           d="" />
        <text
           fill="#000000"
           stroke="none"
           font-family="Arial"
           font-size="13px"
           font-style="normal"
           font-weight="bold"
           text-decoration="none"
           x="469.5105"
           y="424"
           id="text536"
           style="text-decoration:none;text-decoration-line:none">Receipt history</text>
      </g>
    </g>
    <g
       transform="translate(-246,-246)"
       id="g544">
      <path
         fill="none"
         stroke="#000000"
         d="m 586,422 93,7"
         stroke-miterlimit="10"
         id="path542" />
    </g>
    <g
       transform="translate(-246,-246)"
       id="g548">
      <path
         fill="none"
         stroke="#000000"
         d="M 743,521 H 652"
         stroke-miterlimit="10"
         stroke-dasharray="3"
         id="path546" />
    </g>
    <g
       transform="translate(-246,-246)"
       id="g552">
      <path
         fill="none"
         stroke="#000000"
         d="M 662.16267,516.79048 652,521 l 10.16267,4.20952"
         stroke-miterlimit="10"
         id="path550" />
    </g>
    <g
       transform="translate(-246,-246)"
       id="g560">
      <g
         id="g558">
        <path
           fill="none"
           stroke="none"
           id="path554"
           d="" />
        <text
           fill="#000000"
           stroke="none"
           font-family="Arial"
           font-size="13px"
           font-style="normal"
           font-weight="normal"
           text-decoration="none"
           x="671.5"
           y="516.5"
           id="text556"
           style="text-decoration:none;text-decoration-line:none">«include»</text>
      </g>
    </g>
    <g
       transform="translate(-246,-246)"
       id="g564">
      <path
         fill="#c0c0c0"
         stroke="none"
         d="m 839,432 c 0,-9.38884 25.29591,-17 56.5,-17 31.20409,0 56.5,7.61116 56.5,17 0,9.38884 -25.29591,17 -56.5,17 -31.20409,0 -56.5,-7.61116 -56.5,-17 z"
         opacity="0.2"
         id="path562" />
    </g>
    <g
       transform="translate(-246,-246)"
       id="g568">
      <path
         fill="#ffffff"
         stroke="none"
         d="m 832,425 c 0,-9.38884 25.29591,-17 56.5,-17 31.20409,0 56.5,7.61116 56.5,17 0,9.38884 -25.29591,17 -56.5,17 -31.20409,0 -56.5,-7.61116 -56.5,-17 z"
         id="path566" />
    </g>
    <g
       transform="translate(-246,-246)"
       id="g572">
      <path
         fill="none"
         stroke="#000000"
         d="m 832,425 c 0,-9.38884 25.29591,-17 56.5,-17 31.20409,0 56.5,7.61116 56.5,17 0,9.38884 -25.29591,17 -56.5,17 -31.20409,0 -56.5,-7.61116 -56.5,-17 z"
         stroke-miterlimit="10"
         id="path570" />
    </g>
    <g
       transform="translate(-246,-246)"
       id="g580">
      <g
         id="g578">
        <path
           fill="none"
           stroke="none"
           id="path574"
           d="" />
        <text
           fill="#000000"
           stroke="none"
           font-family="Arial"
           font-size="13px"
           font-style="normal"
           font-weight="bold"
           text-decoration="none"
           x="855.98413"
           y="432"
           id="text576"
           style="text-decoration:none;text-decoration-line:none">Edit receipt</text>
      </g>
    </g>
    <g
       transform="translate(-246,-246)"
       id="g584">
      <path
         fill="none"
         stroke="#000000"
         d="m 738,430 93,-3"
         stroke-miterlimit="10"
         id="path582" />
    </g>
  </g>
</svg>
